<svg width="2000" height="2087" viewBox="0 0 2000 2087" fill="none" xmlns="http://www.w3.org/2000/svg">
<path d="M288.5 1851.25L417.557 1592.25H504.329L632.946 1851.25H565.114L539.126 1795.31H381.439L352.808 1851.25H288.5ZM397.296 1752.14H522.829L462.485 1631.89H458.08L397.296 1752.14ZM668.283 1851.25V1592.25H726.425V1851.25H668.283ZM873.097 1851.25C852.542 1851.25 836.391 1848.31 824.646 1842.44C812.9 1836.56 804.531 1827.75 799.539 1816.01C794.841 1804.26 792.491 1789.73 792.491 1772.4V1670.65C792.491 1653.62 794.841 1639.38 799.539 1627.93C804.237 1616.18 812.459 1607.37 824.205 1601.5C835.951 1595.33 852.248 1592.25 873.097 1592.25H1001.71C1022.27 1592.25 1038.27 1595.33 1049.72 1601.5C1061.47 1607.37 1069.69 1616.18 1074.39 1627.93C1079.38 1639.38 1081.88 1653.62 1081.88 1670.65V1772.4C1081.88 1798.24 1076.15 1817.92 1064.7 1831.43C1053.25 1844.64 1032.25 1851.25 1001.71 1851.25H873.097ZM885.871 1808.96H989.381C1000.25 1808.96 1008.61 1806.17 1014.49 1800.59C1020.65 1795.01 1023.74 1787.38 1023.74 1777.69V1665.37C1023.74 1656.85 1020.65 1649.66 1014.49 1643.79C1008.32 1637.62 999.952 1634.54 989.381 1634.54H885.871C875.299 1634.54 866.784 1637.33 860.324 1642.9C853.863 1648.48 850.633 1655.97 850.633 1665.37V1777.69C850.633 1787.67 853.717 1795.45 859.883 1801.03C866.343 1806.32 875.006 1808.96 885.871 1808.96ZM1236.43 1851.25L1235.99 1634.1H1121.47V1591.81H1409.53V1634.1H1294.57V1851.25H1236.43ZM1365.58 1851.25L1494.64 1592.25H1581.41L1710.03 1851.25H1642.2L1616.21 1795.31H1458.52L1429.89 1851.25H1365.58ZM1474.38 1752.14H1599.91L1539.57 1631.89H1535.16L1474.38 1752.14Z" fill="white"/>
<path d="M1291.64 354.33H702.813V379.44H1291.64V354.33Z" fill="white"/>
<path d="M1316.93 476.113L1378.45 537.632H1515.12V562.742H1362.12L1423.18 623.799L1405.43 641.555L1326.61 562.742H1164.83V537.632H1342.94L1299.17 493.868L1316.93 476.113Z" fill="white"/>
<path d="M948.889 517.544H760.405L692.07 585.879L674.314 568.124L724.894 517.544H525.788V492.434H948.889V517.544Z" fill="white"/>
<path d="M843.428 698.335H401.494V723.445H525.61L598.967 796.802L616.722 779.047L561.12 723.445H843.428V698.335Z" fill="white"/>
<path d="M829.052 1212.16L900.282 1283.39H1305.27L1262.58 1240.71H1184.92V1215.6H1272.81V1215.78L1272.98 1215.6L1340.78 1283.39H1398.36V1308.5H1071.77L951 1429.28L933.245 1411.52L1036.26 1308.5H889.881L811.296 1229.92L829.052 1212.16Z" fill="white"/>
<path d="M1531.23 989.609H1434.76V1014.72H1606.77V989.609H1566.74L1476.97 899.835L1512.57 864.239L1494.81 846.483L1458.38 882.919H1389.57V908.029H1449.65L1531.23 989.609Z" fill="white"/>
<path d="M1211.29 723.445H1619.32V748.555H1211.29V723.445Z" fill="white"/>
<path d="M1555.29 1110.14H1277.83V1135.25H1555.29V1110.14Z" fill="white"/>
<path d="M496.912 948.178H390.195V973.288H496.912V948.178Z" fill="white"/>
<path fill-rule="evenodd" clip-rule="evenodd" d="M1291.01 515.033C1317.01 515.033 1338.09 493.954 1338.09 467.952C1338.09 441.95 1317.01 420.871 1291.01 420.871C1265.01 420.871 1243.93 441.95 1243.93 467.952C1243.93 493.954 1265.01 515.033 1291.01 515.033ZM1291.01 491.179C1303.84 491.179 1314.24 480.78 1314.24 467.952C1314.24 455.124 1303.84 444.726 1291.01 444.726C1278.18 444.726 1267.78 455.124 1267.78 467.952C1267.78 480.78 1278.18 491.179 1291.01 491.179Z" fill="white"/>
<path fill-rule="evenodd" clip-rule="evenodd" d="M712.857 594.757C712.857 620.759 691.778 641.838 665.776 641.838C639.773 641.838 618.695 620.759 618.695 594.757C618.695 568.755 639.773 547.676 665.776 547.676C691.778 547.676 712.857 568.755 712.857 594.757ZM689.002 594.757C689.002 607.585 678.603 617.984 665.776 617.984C652.948 617.984 642.549 607.585 642.549 594.757C642.549 581.929 652.948 571.53 665.776 571.53C678.603 571.53 689.002 581.929 689.002 594.757Z" fill="white"/>
<path fill-rule="evenodd" clip-rule="evenodd" d="M1476.2 651.254C1476.2 677.256 1455.12 698.335 1429.12 698.335C1403.11 698.335 1382.03 677.256 1382.03 651.254C1382.03 625.252 1403.11 604.173 1429.12 604.173C1455.12 604.173 1476.2 625.252 1476.2 651.254ZM1452.34 651.254C1452.34 664.082 1441.94 674.481 1429.12 674.481C1416.29 674.481 1405.89 664.082 1405.89 651.254C1405.89 638.426 1416.29 628.028 1429.12 628.028C1441.94 628.028 1452.34 638.426 1452.34 651.254Z" fill="white"/>
<path fill-rule="evenodd" clip-rule="evenodd" d="M1564.08 829.534C1564.08 855.536 1543 876.615 1517 876.615C1491 876.615 1469.92 855.536 1469.92 829.534C1469.92 803.532 1491 782.453 1517 782.453C1543 782.453 1564.08 803.532 1564.08 829.534ZM1540.23 829.534C1540.23 842.362 1529.83 852.761 1517 852.761C1504.17 852.761 1493.77 842.362 1493.77 829.534C1493.77 816.706 1504.17 806.307 1517 806.307C1529.83 806.307 1540.23 816.706 1540.23 829.534Z" fill="white"/>
<path fill-rule="evenodd" clip-rule="evenodd" d="M1355.04 939.39C1381.04 939.39 1402.12 918.311 1402.12 892.309C1402.12 866.307 1381.04 845.228 1355.04 845.228C1329.04 845.228 1307.96 866.307 1307.96 892.309C1307.96 918.311 1329.04 939.39 1355.04 939.39ZM1355.04 915.535C1367.87 915.535 1378.27 905.136 1378.27 892.309C1378.27 879.481 1367.87 869.082 1355.04 869.082C1342.21 869.082 1331.81 879.481 1331.81 892.309C1331.81 905.136 1342.21 915.535 1355.04 915.535Z" fill="white"/>
<path fill-rule="evenodd" clip-rule="evenodd" d="M1443.55 1001.54C1443.55 1027.54 1422.47 1048.62 1396.47 1048.62C1370.47 1048.62 1349.39 1027.54 1349.39 1001.54C1349.39 975.535 1370.47 954.456 1396.47 954.456C1422.47 954.456 1443.55 975.535 1443.55 1001.54ZM1419.7 1001.54C1419.7 1014.36 1409.3 1024.76 1396.47 1024.76C1383.64 1024.76 1373.25 1014.36 1373.25 1001.54C1373.25 988.709 1383.64 978.31 1396.47 978.31C1409.3 978.31 1419.7 988.709 1419.7 1001.54Z" fill="white"/>
<path fill-rule="evenodd" clip-rule="evenodd" d="M803.88 1250.75C829.882 1250.75 850.961 1229.67 850.961 1203.67C850.961 1177.67 829.882 1156.59 803.88 1156.59C777.878 1156.59 756.799 1177.67 756.799 1203.67C756.799 1229.67 777.878 1250.75 803.88 1250.75ZM803.88 1226.9C816.708 1226.9 827.106 1216.5 827.106 1203.67C827.106 1190.84 816.708 1180.44 803.88 1180.44C791.052 1180.44 780.653 1190.84 780.653 1203.67C780.653 1216.5 791.052 1226.9 803.88 1226.9Z" fill="white"/>
<path fill-rule="evenodd" clip-rule="evenodd" d="M1198.73 1227.53C1198.73 1253.53 1177.65 1274.61 1151.65 1274.61C1125.65 1274.61 1104.57 1253.53 1104.57 1227.53C1104.57 1201.52 1125.65 1180.44 1151.65 1180.44C1177.65 1180.44 1198.73 1201.52 1198.73 1227.53ZM1174.88 1227.53C1174.88 1240.35 1164.48 1250.75 1151.65 1250.75C1138.82 1250.75 1128.42 1240.35 1128.42 1227.53C1128.42 1214.7 1138.82 1204.3 1151.65 1204.3C1164.48 1204.3 1174.88 1214.7 1174.88 1227.53Z" fill="white"/>
<path fill-rule="evenodd" clip-rule="evenodd" d="M630.622 861.549C656.624 861.549 677.703 840.47 677.703 814.468C677.703 788.466 656.624 767.387 630.622 767.387C604.62 767.387 583.541 788.466 583.541 814.468C583.541 840.47 604.62 861.549 630.622 861.549ZM630.622 837.695C643.45 837.695 653.848 827.296 653.848 814.468C653.848 801.64 643.45 791.242 630.622 791.242C617.794 791.242 607.395 801.64 607.395 814.468C607.395 827.296 617.794 837.695 630.622 837.695Z" fill="white"/>
<path fill-rule="evenodd" clip-rule="evenodd" d="M573.497 960.105C573.497 986.107 552.418 1007.19 526.416 1007.19C500.414 1007.19 479.335 986.107 479.335 960.105C479.335 934.103 500.414 913.024 526.416 913.024C552.418 913.024 573.497 934.103 573.497 960.105ZM549.643 960.105C549.643 972.933 539.244 983.332 526.416 983.332C513.588 983.332 503.189 972.933 503.189 960.105C503.189 947.278 513.588 936.879 526.416 936.879C539.244 936.879 549.643 947.278 549.643 960.105Z" fill="white"/>
<path fill-rule="evenodd" clip-rule="evenodd" d="M1710.97 862.178C1710.97 1207.83 1392.54 1488.04 999.737 1488.04C866.125 1488.04 741.119 1455.62 634.323 1399.23L679.497 1321.27C772.645 1371.76 882.328 1400.89 999.737 1400.89C1337.59 1400.89 1611.48 1159.7 1611.48 862.178C1611.48 564.656 1337.59 323.468 999.737 323.468C661.881 323.468 387.995 564.656 387.995 862.178C387.995 969.058 423.34 1068.67 484.299 1152.44L433.261 1240.68C342.423 1135.57 288.5 1004.42 288.5 862.178C288.5 516.523 606.931 236.314 999.737 236.314C1392.54 236.314 1710.97 516.523 1710.97 862.178Z" fill="white"/>
<path d="M1024.7 660.112C1027.51 655.254 1034.8 656.255 1036.2 661.693L1117.61 977.371C1118.64 981.344 1115.64 985.216 1111.53 985.216H992.152C989.911 985.216 987.84 986.41 986.718 988.35L951.498 1049.25H1194.05C1198.19 1049.25 1201.2 1045.3 1200.1 1041.31L1053.91 508.71C1052.44 503.349 1045.24 502.406 1042.43 507.207L476.824 1476.11H547.909C550.148 1476.11 552.217 1474.92 553.34 1472.98L1024.7 660.112Z" fill="white"/>
<path d="M411.538 1476.11L1007.33 445.981H934.934C932.693 445.981 930.621 447.176 929.499 449.116L341.029 1466.69C338.608 1470.88 341.628 1476.11 346.463 1476.11H411.538Z" fill="white"/>
<path d="M1350.08 1166.63C1354.18 1166.63 1357.18 1162.76 1356.16 1158.79L1173.58 450.692C1172.87 447.919 1170.37 445.981 1167.5 445.981H1105.54L1282.44 1095.93C1283.52 1099.93 1280.52 1103.86 1276.38 1103.86H919.911L883.604 1166.63H1350.08Z" fill="white"/>
</svg>
